<svg width="12" height="12" viewBox="0 0 12 12" fill="none" xmlns="http://www.w3.org/2000/svg">
<path d="M6 1C6.65661 1 7.30679 1.12933 7.91342 1.3806C8.52005 1.63188 9.07124 2.00017 9.53553 2.46447C9.99983 2.92876 10.3681 3.47995 10.6194 4.08658C10.8707 4.69321 11 5.34339 11 6C11 7.32608 10.4732 8.59785 9.53553 9.53553C8.59785 10.4732 7.32608 11 6 11C5.34339 11 4.69321 10.8707 4.08658 10.6194C3.47995 10.3681 2.92876 9.99983 2.46447 9.53553C1.52678 8.59785 1 7.32608 1 6C1 4.67392 1.52678 3.40215 2.46447 2.46447C3.40215 1.52678 4.67392 1 6 1ZM6 2C3.96 2 2.275 3.525 2.03 5.5H4.065C4.285 4.635 5.07 4 6 4C6.93 4 7.715 4.635 7.935 5.5H9.97C9.725 3.525 8.04 2 6 2ZM6 10C8.04 10 9.725 8.475 9.97 6.5H7.935C7.715 7.365 6.93 8 6 8C5.07 8 4.285 7.365 4.065 6.5H2.03C2.275 8.475 3.96 10 6 10ZM6 5C5.73478 5 5.48043 5.10536 5.29289 5.29289C5.10536 5.48043 5 5.73478 5 6C5 6.26522 5.10536 6.51957 5.29289 6.70711C5.48043 6.89464 5.73478 7 6 7C6.26522 7 6.51957 6.89464 6.70711 6.70711C6.89464 6.51957 7 6.26522 7 6C7 5.73478 6.89464 5.48043 6.70711 5.29289C6.51957 5.10536 6.26522 5 6 5Z" fill="black"/>
</svg>
